<?xml version="1.0" ?><svg height="492.407" id="svg1507" width="191.237" xmlns="http://www.w3.org/2000/svg" xmlns:cc="http://creativecommons.org/ns#" xmlns:dc="http://purl.org/dc/elements/1.1/" xmlns:inkscape="http://www.inkscape.org/namespaces/inkscape" xmlns:rdf="http://www.w3.org/1999/02/22-rdf-syntax-ns#" xmlns:sodipodi="http://sodipodi.sourceforge.net/DTD/sodipodi-0.dtd" xmlns:svg="http://www.w3.org/2000/svg"><defs id="defs1509"><marker id="ArrowEnd" markerHeight="3" markerUnits="strokeWidth" markerWidth="4" orient="auto" refX="0" refY="5" viewBox="0 0 10 10"><path d="M 0 0 L 10 5 L 0 10 z" id="path1512"/></marker><marker id="ArrowStart" markerHeight="3" markerUnits="strokeWidth" markerWidth="4" orient="auto" refX="10" refY="5" viewBox="0 0 10 10"><path d="M 10 0 L 0 5 L 10 10 z" id="path1515"/></marker></defs><g id="g1517"><g id="g1519"><path d="M 95.872 81.671C 118.422 81.671 136.706 63.387 136.706 40.835C 136.706 18.284 118.422 0 95.872 0C 73.319 0 55.038 18.284 55.038 40.835C 55.038 63.387 73.319 81.671 95.872 81.671z" id="path1521" style="stroke:none; fill:#004381"/><path d="M 95.872 40.835" id="path1523" style="stroke:none; fill:#004381"/></g><path d="M 52.173 90.683C 23.256 90.683 0 114.267 0 143.683L 0 269.058C 0 293.433 35.673 293.433 35.673 269.058L 35.673 154.416L 44.118 154.416L 44.118 468.323C 44.118 500.913 91.621 499.954 91.621 468.323L 91.621 286.104L 99.803 286.104L 99.803 468.323C 99.803 499.954 147.567 500.913 147.567 468.323L 147.567 154.416L 155.814 154.416L 155.814 269.058C 155.814 293.621 191.301 293.62 191.237 269.058L 191.237 144.433C 191.237 117.308 170.173 90.739 138.423 90.739L 52.173 90.683z" id="path1525" style="stroke:none; fill:#004381"/></g></svg>
